<svg width="546pt" height="610pt" viewBox="0.00 0.00 545.72 609.60" xmlns="http://www.w3.org/2000/svg" xmlns:xlink="http://www.w3.org/1999/xlink">
<g id="graph0" class="graph" transform="scale(1 1) rotate(0) translate(4 605.6)">
<title>G</title>
<polygon fill="white" stroke="none" points="-4,4 -4,-605.6 541.72,-605.6 541.72,4 -4,4"/>
<g id="clust1" class="cluster">
<title>cluster_0</title>
<polygon fill="lightgrey" stroke="lightgrey" points="257.72,-296 257.72,-516.8 327.72,-516.8 327.72,-296 257.72,-296"/>
<text text-anchor="middle" x="292.72" y="-500.2" font-family="Times,serif" font-size="14.00">registers</text>
</g>
<g id="clust2" class="cluster">
<title>cluster_1</title>
<polygon fill="none" stroke="blue" points="81.72,-8 81.72,-593.6 217.72,-593.6 217.72,-8 81.72,-8"/>
<text text-anchor="middle" x="149.72" y="-577" font-family="Times,serif" font-size="14.00">instructions</text>
</g>
<!-- A -->
<g id="node1" class="node">
<title>A</title>
<ellipse fill="white" stroke="white" cx="292.72" cy="-466" rx="27" ry="18"/>
<text text-anchor="middle" x="292.72" y="-461.8" font-family="Times,serif" font-size="14.00">A</text>
</g>
<!-- B -->
<g id="node2" class="node">
<title>B</title>
<ellipse fill="white" stroke="white" cx="292.72" cy="-394" rx="27" ry="18"/>
<text text-anchor="middle" x="292.72" y="-389.8" font-family="Times,serif" font-size="14.00">B</text>
</g>
<!-- A&#45;&gt;B -->
<g id="edge1" class="edge">
<title>A-&gt;B</title>
<path fill="none" stroke="black" d="M292.72,-447.7C292.72,-440.41 292.72,-431.73 292.72,-423.54"/>
<polygon fill="black" stroke="black" points="296.22,-423.62 292.72,-413.62 289.22,-423.62 296.22,-423.62"/>
</g>
<!-- bst -->
<g id="node4" class="node">
<title>bst</title>
<ellipse fill="lightgrey" stroke="black" cx="161.72" cy="-542.8" rx="44.84" ry="18"/>
<text text-anchor="middle" x="161.72" y="-538.6" font-family="Times,serif" font-size="14.00">A mod 8</text>
</g>
<!-- A&#45;&gt;bst -->
<g id="edge10" class="edge">
<title>A-&gt;bst</title>
<path fill="none" stroke="black" d="M283.19,-483.14C275.89,-494.16 264.86,-508.25 251.72,-516.8 240.57,-524.05 227.33,-529.22 214.49,-532.9"/>
<polygon fill="black" stroke="black" points="213.64,-529.5 204.83,-535.38 215.38,-536.28 213.64,-529.5"/>
</g>
<!-- cdv -->
<g id="node6" class="node">
<title>cdv</title>
<ellipse fill="lightgrey" stroke="black" cx="168.72" cy="-394" rx="41.32" ry="18"/>
<text text-anchor="middle" x="168.72" y="-389.8" font-family="Times,serif" font-size="14.00">A / 2^B</text>
</g>
<!-- A&#45;&gt;cdv -->
<g id="edge13" class="edge">
<title>A-&gt;cdv</title>
<path fill="none" stroke="black" d="M272.52,-453.6C253.71,-442.98 225.3,-426.94 202.96,-414.33"/>
<polygon fill="black" stroke="black" points="204.92,-411.42 194.49,-409.55 201.48,-417.51 204.92,-411.42"/>
</g>
<!-- adv -->
<g id="node10" class="node">
<title>adv</title>
<ellipse fill="lightgrey" stroke="black" cx="167.72" cy="-106" rx="41.78" ry="18"/>
<text text-anchor="middle" x="167.72" y="-101.8" font-family="Times,serif" font-size="14.00">A &gt;&gt;` 3</text>
</g>
<!-- A&#45;&gt;adv -->
<g id="edge23" class="edge">
<title>A-&gt;adv</title>
<path fill="none" stroke="black" d="M316.93,-457.38C363.66,-441 461.72,-397.73 461.72,-323 461.72,-323 461.72,-323 461.72,-249 461.72,-143.3 305.72,-116.24 220.99,-109.34"/>
<polygon fill="black" stroke="black" points="221.27,-105.85 211.04,-108.61 220.75,-112.84 221.27,-105.85"/>
</g>
<!-- jnz -->
<g id="node11" class="node">
<title>jnz</title>
<ellipse fill="lightgrey" stroke="black" cx="167.72" cy="-34" rx="39.47" ry="18"/>
<text text-anchor="middle" x="167.72" y="-29.8" font-family="Times,serif" font-size="14.00">jnz A   </text>
</g>
<!-- A&#45;&gt;jnz -->
<g id="edge25" class="edge">
<title>A-&gt;jnz</title>
<path fill="none" stroke="black" d="M319.4,-462.16C382.9,-453.76 537.72,-423.05 537.72,-323 537.72,-323 537.72,-323 537.72,-177 537.72,-108.83 316.04,-61.12 215.85,-43.03"/>
<polygon fill="black" stroke="black" points="216.49,-39.59 206.04,-41.29 215.27,-46.48 216.49,-39.59"/>
</g>
<!-- C -->
<g id="node3" class="node">
<title>C</title>
<ellipse fill="white" stroke="white" cx="292.72" cy="-322" rx="27" ry="18"/>
<text text-anchor="middle" x="292.72" y="-317.8" font-family="Times,serif" font-size="14.00">C</text>
</g>
<!-- B&#45;&gt;C -->
<g id="edge2" class="edge">
<title>B-&gt;C</title>
<path fill="none" stroke="black" d="M292.72,-375.7C292.72,-368.41 292.72,-359.73 292.72,-351.54"/>
<polygon fill="black" stroke="black" points="296.22,-351.62 292.72,-341.62 289.22,-351.62 296.22,-351.62"/>
</g>
<!-- bxl1 -->
<g id="node5" class="node">
<title>bxl1</title>
<ellipse fill="lightgrey" stroke="black" cx="159.72" cy="-466" rx="49.66" ry="18"/>
<text text-anchor="middle" x="159.72" y="-461.8" font-family="Times,serif" font-size="14.00">B xor 101</text>
</g>
<!-- B&#45;&gt;bxl1 -->
<g id="edge15" class="edge">
<title>B-&gt;bxl1</title>
<path fill="none" stroke="black" d="M274.25,-407.51C255.3,-418.35 225.48,-434.17 200.96,-446.47"/>
<polygon fill="black" stroke="black" points="199.58,-443.25 192.17,-450.83 202.69,-449.52 199.58,-443.25"/>
</g>
<!-- B&#45;&gt;cdv -->
<g id="edge14" class="edge">
<title>B-&gt;cdv</title>
<path fill="none" stroke="black" d="M265.38,-394C250.77,-394 236.16,-394 221.55,-394"/>
<polygon fill="black" stroke="black" points="221.89,-390.5 211.89,-394 221.89,-397.5 221.89,-390.5"/>
</g>
<!-- bxl2 -->
<g id="node7" class="node">
<title>bxl2</title>
<ellipse fill="lightgrey" stroke="black" cx="159.72" cy="-322" rx="49.66" ry="18"/>
<text text-anchor="middle" x="159.72" y="-317.8" font-family="Times,serif" font-size="14.00">B xor 110</text>
</g>
<!-- B&#45;&gt;bxl2 -->
<g id="edge16" class="edge">
<title>B-&gt;bxl2</title>
<path fill="none" stroke="black" d="M274.25,-380.49C255.23,-369.61 225.27,-353.72 200.69,-341.4"/>
<polygon fill="black" stroke="black" points="202.41,-338.34 191.89,-337.03 199.3,-344.61 202.41,-338.34"/>
</g>
<!-- bxc -->
<g id="node8" class="node">
<title>bxc</title>
<ellipse fill="lightgrey" stroke="black" cx="167.72" cy="-250" rx="41.62" ry="18"/>
<text text-anchor="middle" x="167.72" y="-245.8" font-family="Times,serif" font-size="14.00">B xor C</text>
</g>
<!-- B&#45;&gt;bxc -->
<g id="edge19" class="edge">
<title>B-&gt;bxc</title>
<path fill="none" stroke="black" d="M306.38,-378.23C323.37,-358 347.94,-321.33 328.72,-296 315.26,-278.26 260.1,-265.62 218.06,-258.34"/>
<polygon fill="black" stroke="black" points="218.8,-254.92 208.36,-256.72 217.65,-261.82 218.8,-254.92"/>
</g>
<!-- out -->
<g id="node9" class="node">
<title>out</title>
<ellipse fill="lightgrey" stroke="black" cx="165.72" cy="-178" rx="44.3" ry="18"/>
<text text-anchor="middle" x="165.72" y="-173.8" font-family="Times,serif" font-size="14.00">B mod 8</text>
</g>
<!-- B&#45;&gt;out -->
<g id="edge22" class="edge">
<title>B-&gt;out</title>
<path fill="none" stroke="black" d="M315.16,-383.43C332.21,-374.81 354.42,-360.36 364.72,-340 373.54,-322.55 374.43,-312.97 364.72,-296 332.41,-239.52 261.04,-207.62 213.15,-191.84"/>
<polygon fill="black" stroke="black" points="214.45,-188.58 203.86,-188.9 212.34,-195.26 214.45,-188.58"/>
</g>
<!-- C&#45;&gt;bxc -->
<g id="edge20" class="edge">
<title>C-&gt;bxc</title>
<path fill="none" stroke="black" d="M272.35,-309.6C253.4,-298.98 224.76,-282.94 202.23,-270.33"/>
<polygon fill="black" stroke="black" points="204.12,-267.38 193.69,-265.54 200.7,-273.48 204.12,-267.38"/>
</g>
<!-- bst&#45;&gt;B -->
<g id="edge11" class="edge">
<title>bst-&gt;B</title>
<path fill="none" stroke="black" d="M196.14,-531C204.17,-527.37 212.25,-522.7 218.72,-516.8 244.52,-493.25 238.44,-477.77 256.72,-448 262.47,-438.63 269.14,-428.6 275.17,-419.81"/>
<polygon fill="black" stroke="black" points="277.93,-421.98 280.76,-411.76 272.18,-417.98 277.93,-421.98"/>
</g>
<!-- bst&#45;&gt;bxl1 -->
<g id="edge3" class="edge">
<title>bst-&gt;bxl1</title>
<path fill="none" stroke="black" d="M161.25,-524.45C161.02,-515.86 160.74,-505.27 160.48,-495.52"/>
<polygon fill="black" stroke="black" points="163.98,-495.67 160.22,-485.77 156.99,-495.86 163.98,-495.67"/>
</g>
<!-- bxl1&#45;&gt;B -->
<g id="edge12" class="edge">
<title>bxl1-&gt;B</title>
<path fill="none" stroke="black" d="M182.9,-449.81C204.32,-437.76 236.13,-421.04 260.09,-409.25"/>
<polygon fill="black" stroke="black" points="261.32,-412.54 268.79,-405.02 258.27,-406.24 261.32,-412.54"/>
</g>
<!-- bxl1&#45;&gt;cdv -->
<g id="edge4" class="edge">
<title>bxl1-&gt;cdv</title>
<path fill="none" stroke="black" d="M161.94,-447.7C162.89,-440.32 164.02,-431.52 165.08,-423.25"/>
<polygon fill="black" stroke="black" points="168.52,-423.97 166.32,-413.61 161.58,-423.08 168.52,-423.97"/>
</g>
<!-- cdv&#45;&gt;C -->
<g id="edge18" class="edge">
<title>cdv-&gt;C</title>
<path fill="none" stroke="black" d="M193.21,-379.17C213.23,-367.87 241.6,-351.86 262.93,-339.82"/>
<polygon fill="black" stroke="black" points="264.46,-342.97 271.45,-335.01 261.02,-336.87 264.46,-342.97"/>
</g>
<!-- cdv&#45;&gt;bxl2 -->
<g id="edge5" class="edge">
<title>cdv-&gt;bxl2</title>
<path fill="none" stroke="black" d="M166.49,-375.7C165.54,-368.32 164.41,-359.52 163.35,-351.25"/>
<polygon fill="black" stroke="black" points="166.86,-351.08 162.11,-341.61 159.91,-351.97 166.86,-351.08"/>
</g>
<!-- bxl2&#45;&gt;B -->
<g id="edge17" class="edge">
<title>bxl2-&gt;B</title>
<path fill="none" stroke="black" d="M182.99,-338.24C204.46,-350.31 236.3,-367.05 260.24,-378.83"/>
<polygon fill="black" stroke="black" points="258.41,-381.83 268.93,-383.04 261.46,-375.53 258.41,-381.83"/>
</g>
<!-- bxl2&#45;&gt;bxc -->
<g id="edge6" class="edge">
<title>bxl2-&gt;bxc</title>
<path fill="none" stroke="black" d="M161.69,-303.7C162.53,-296.41 163.52,-287.73 164.46,-279.54"/>
<polygon fill="black" stroke="black" points="167.93,-279.94 165.59,-269.61 160.98,-279.15 167.93,-279.94"/>
</g>
<!-- bxc&#45;&gt;B -->
<g id="edge21" class="edge">
<title>bxc-&gt;B</title>
<path fill="none" stroke="black" d="M207.83,-255.39C255.23,-261.5 329.82,-274.33 346.72,-296 358.74,-311.42 354.28,-321.97 346.72,-340 341.21,-353.12 330.7,-364.62 320.41,-373.53"/>
<polygon fill="black" stroke="black" points="318.32,-370.71 312.73,-379.71 322.71,-376.17 318.32,-370.71"/>
</g>
<!-- bxc&#45;&gt;out -->
<g id="edge7" class="edge">
<title>bxc-&gt;out</title>
<path fill="none" stroke="black" d="M167.22,-231.7C167.01,-224.41 166.77,-215.73 166.53,-207.54"/>
<polygon fill="black" stroke="black" points="170.03,-207.51 166.25,-197.62 163.04,-207.71 170.03,-207.51"/>
</g>
<!-- out&#45;&gt;adv -->
<g id="edge8" class="edge">
<title>out-&gt;adv</title>
<path fill="none" stroke="black" d="M166.21,-159.7C166.42,-152.41 166.67,-143.73 166.9,-135.54"/>
<polygon fill="black" stroke="black" points="170.4,-135.71 167.18,-125.62 163.4,-135.51 170.4,-135.71"/>
</g>
<!-- output -->
<g id="node12" class="node">
<title>output</title>
<ellipse fill="none" stroke="black" cx="35.72" cy="-106" rx="35.72" ry="18"/>
<text text-anchor="middle" x="35.72" y="-101.8" font-family="Times,serif" font-size="14.00">output</text>
</g>
<!-- out&#45;&gt;output -->
<g id="edge27" class="edge">
<title>out-&gt;output</title>
<path fill="none" stroke="black" d="M139.72,-163C119.51,-152.12 91.31,-136.93 69.37,-125.12"/>
<polygon fill="black" stroke="black" points="71.27,-122.17 60.81,-120.51 67.96,-128.33 71.27,-122.17"/>
</g>
<!-- adv&#45;&gt;A -->
<g id="edge24" class="edge">
<title>adv-&gt;A</title>
<path fill="none" stroke="black" d="M209.76,-106.43C299.1,-107.64 499.72,-124.25 499.72,-249 499.72,-323 499.72,-323 499.72,-323 499.72,-404.51 389.23,-442.71 329.69,-457.38"/>
<polygon fill="black" stroke="black" points="328.92,-453.97 319.99,-459.66 330.52,-460.78 328.92,-453.97"/>
</g>
<!-- adv&#45;&gt;jnz -->
<g id="edge9" class="edge">
<title>adv-&gt;jnz</title>
<path fill="none" stroke="black" d="M167.72,-87.7C167.72,-80.41 167.72,-71.73 167.72,-63.54"/>
<polygon fill="black" stroke="black" points="171.22,-63.62 167.72,-53.62 164.22,-63.62 171.22,-63.62"/>
</g>
<!-- jnz&#45;&gt;bst -->
<g id="edge26" class="edge">
<title>jnz-&gt;bst</title>
<path fill="none" stroke="black" d="M149.36,-49.99C138.46,-59.78 125.17,-73.42 116.72,-88 96.05,-123.65 90.72,-135.79 90.72,-177 90.72,-395 90.72,-395 90.72,-395 90.72,-449.32 68.63,-472.97 100.72,-516.8 104.01,-521.3 108.25,-524.99 112.97,-528.02"/>
<polygon fill="black" stroke="black" points="111.34,-531.11 121.82,-532.65 114.59,-524.91 111.34,-531.11"/>
</g>
</g>
</svg>